<mxfile host="app.diagrams.net" modified="2024-02-05T10:15:09.840Z" agent="Mozilla/5.0 (Windows NT 10.0; Win64; x64) AppleWebKit/537.36 (KHTML, like Gecko) Chrome/121.0.0.0 Safari/537.36" etag="rP3OG_Olu7bk0rq9DXeS" version="23.1.1" type="device">
  <diagram name="Страница — 1" id="mCSr3RqHnqogXKad5onn">
    <mxGraphModel dx="2478" dy="867" grid="1" gridSize="10" guides="1" tooltips="1" connect="1" arrows="1" fold="1" page="1" pageScale="1" pageWidth="827" pageHeight="1169" math="0" shadow="0">
      <root>
        <mxCell id="0" />
        <mxCell id="1" parent="0" />
        <mxCell id="0liVaq3ABxScZ5lsIXcO-2" style="edgeStyle=orthogonalEdgeStyle;rounded=0;orthogonalLoop=1;jettySize=auto;html=1;exitX=0;exitY=0.5;exitDx=0;exitDy=0;entryX=0.5;entryY=0;entryDx=0;entryDy=0;" edge="1" parent="1" source="0liVaq3ABxScZ5lsIXcO-1" target="0liVaq3ABxScZ5lsIXcO-5">
          <mxGeometry relative="1" as="geometry">
            <mxPoint x="160" y="480" as="targetPoint" />
          </mxGeometry>
        </mxCell>
        <mxCell id="0liVaq3ABxScZ5lsIXcO-3" style="edgeStyle=orthogonalEdgeStyle;rounded=0;orthogonalLoop=1;jettySize=auto;html=1;exitX=1;exitY=0.5;exitDx=0;exitDy=0;" edge="1" parent="1" source="0liVaq3ABxScZ5lsIXcO-1" target="0liVaq3ABxScZ5lsIXcO-6">
          <mxGeometry relative="1" as="geometry">
            <mxPoint x="559.9999999999998" y="480" as="targetPoint" />
          </mxGeometry>
        </mxCell>
        <mxCell id="0liVaq3ABxScZ5lsIXcO-1" value="&lt;font face=&quot;Times New Roman&quot; style=&quot;font-size: 24px;&quot;&gt;Родительский класс&lt;/font&gt;" style="rounded=1;whiteSpace=wrap;html=1;" vertex="1" parent="1">
          <mxGeometry x="240" y="200" width="240" height="80" as="geometry" />
        </mxCell>
        <mxCell id="0liVaq3ABxScZ5lsIXcO-11" style="edgeStyle=orthogonalEdgeStyle;rounded=0;orthogonalLoop=1;jettySize=auto;html=1;entryX=1;entryY=0.5;entryDx=0;entryDy=0;" edge="1" parent="1" source="0liVaq3ABxScZ5lsIXcO-5" target="0liVaq3ABxScZ5lsIXcO-9">
          <mxGeometry relative="1" as="geometry">
            <Array as="points">
              <mxPoint x="200" y="480" />
            </Array>
          </mxGeometry>
        </mxCell>
        <mxCell id="0liVaq3ABxScZ5lsIXcO-5" value="&lt;font face=&quot;Times New Roman&quot; style=&quot;font-size: 24px;&quot;&gt;Домашние животные&lt;/font&gt;" style="rounded=1;whiteSpace=wrap;html=1;" vertex="1" parent="1">
          <mxGeometry x="40" y="320" width="240" height="80" as="geometry" />
        </mxCell>
        <mxCell id="0liVaq3ABxScZ5lsIXcO-6" value="&lt;font face=&quot;Times New Roman&quot; style=&quot;font-size: 24px;&quot;&gt;Вьючные животные&lt;/font&gt;" style="rounded=1;whiteSpace=wrap;html=1;" vertex="1" parent="1">
          <mxGeometry x="440" y="320" width="240" height="80" as="geometry" />
        </mxCell>
        <mxCell id="0liVaq3ABxScZ5lsIXcO-8" value="&lt;font face=&quot;Times New Roman&quot; style=&quot;font-size: 24px;&quot;&gt;Кошки&lt;/font&gt;" style="rounded=1;whiteSpace=wrap;html=1;" vertex="1" parent="1">
          <mxGeometry x="-80" y="530" width="240" height="80" as="geometry" />
        </mxCell>
        <mxCell id="0liVaq3ABxScZ5lsIXcO-9" value="&lt;font face=&quot;Times New Roman&quot; style=&quot;font-size: 24px;&quot;&gt;Собаки&lt;/font&gt;" style="rounded=1;whiteSpace=wrap;html=1;" vertex="1" parent="1">
          <mxGeometry x="-80" y="440" width="240" height="80" as="geometry" />
        </mxCell>
        <mxCell id="0liVaq3ABxScZ5lsIXcO-10" value="&lt;font face=&quot;Times New Roman&quot; style=&quot;font-size: 24px;&quot;&gt;Хомяки&lt;/font&gt;" style="rounded=1;whiteSpace=wrap;html=1;" vertex="1" parent="1">
          <mxGeometry x="-80" y="620" width="240" height="80" as="geometry" />
        </mxCell>
        <mxCell id="0liVaq3ABxScZ5lsIXcO-12" style="edgeStyle=orthogonalEdgeStyle;rounded=0;orthogonalLoop=1;jettySize=auto;html=1;entryX=1;entryY=0.5;entryDx=0;entryDy=0;" edge="1" parent="1">
          <mxGeometry relative="1" as="geometry">
            <mxPoint x="200" y="480" as="sourcePoint" />
            <mxPoint x="160" y="560" as="targetPoint" />
            <Array as="points">
              <mxPoint x="200" y="560" />
            </Array>
          </mxGeometry>
        </mxCell>
        <mxCell id="0liVaq3ABxScZ5lsIXcO-13" style="edgeStyle=orthogonalEdgeStyle;rounded=0;orthogonalLoop=1;jettySize=auto;html=1;" edge="1" parent="1">
          <mxGeometry relative="1" as="geometry">
            <mxPoint x="200" y="550" as="sourcePoint" />
            <mxPoint x="160" y="660" as="targetPoint" />
            <Array as="points">
              <mxPoint x="200" y="660" />
              <mxPoint x="160" y="660" />
            </Array>
          </mxGeometry>
        </mxCell>
        <mxCell id="0liVaq3ABxScZ5lsIXcO-14" value="&lt;font face=&quot;Times New Roman&quot; style=&quot;font-size: 24px;&quot;&gt;Верблюды&lt;/font&gt;" style="rounded=1;whiteSpace=wrap;html=1;" vertex="1" parent="1">
          <mxGeometry x="560" y="530" width="240" height="80" as="geometry" />
        </mxCell>
        <mxCell id="0liVaq3ABxScZ5lsIXcO-15" value="&lt;font face=&quot;Times New Roman&quot; style=&quot;font-size: 24px;&quot;&gt;Лошади&lt;/font&gt;" style="rounded=1;whiteSpace=wrap;html=1;" vertex="1" parent="1">
          <mxGeometry x="560" y="440" width="240" height="80" as="geometry" />
        </mxCell>
        <mxCell id="0liVaq3ABxScZ5lsIXcO-16" value="&lt;font face=&quot;Times New Roman&quot; style=&quot;font-size: 24px;&quot;&gt;Ослы&lt;/font&gt;" style="rounded=1;whiteSpace=wrap;html=1;" vertex="1" parent="1">
          <mxGeometry x="560" y="620" width="240" height="80" as="geometry" />
        </mxCell>
        <mxCell id="0liVaq3ABxScZ5lsIXcO-17" style="edgeStyle=orthogonalEdgeStyle;rounded=0;orthogonalLoop=1;jettySize=auto;html=1;" edge="1" parent="1" target="0liVaq3ABxScZ5lsIXcO-15">
          <mxGeometry relative="1" as="geometry">
            <mxPoint x="520" y="400" as="sourcePoint" />
            <mxPoint x="480" y="480" as="targetPoint" />
            <Array as="points">
              <mxPoint x="520" y="480" />
            </Array>
          </mxGeometry>
        </mxCell>
        <mxCell id="0liVaq3ABxScZ5lsIXcO-18" style="edgeStyle=orthogonalEdgeStyle;rounded=0;orthogonalLoop=1;jettySize=auto;html=1;entryX=0;entryY=0.5;entryDx=0;entryDy=0;" edge="1" parent="1" target="0liVaq3ABxScZ5lsIXcO-14">
          <mxGeometry relative="1" as="geometry">
            <mxPoint x="520" y="470" as="sourcePoint" />
            <mxPoint x="590" y="520" as="targetPoint" />
            <Array as="points">
              <mxPoint x="520" y="570" />
            </Array>
          </mxGeometry>
        </mxCell>
        <mxCell id="0liVaq3ABxScZ5lsIXcO-19" style="edgeStyle=orthogonalEdgeStyle;rounded=0;orthogonalLoop=1;jettySize=auto;html=1;entryX=0;entryY=0.5;entryDx=0;entryDy=0;" edge="1" parent="1" target="0liVaq3ABxScZ5lsIXcO-16">
          <mxGeometry relative="1" as="geometry">
            <mxPoint x="520" y="570" as="sourcePoint" />
            <mxPoint x="560" y="650" as="targetPoint" />
            <Array as="points">
              <mxPoint x="520" y="660" />
            </Array>
          </mxGeometry>
        </mxCell>
      </root>
    </mxGraphModel>
  </diagram>
</mxfile>
